<?xml version="1.0" encoding="UTF-8" standalone="no"?><svg xmlns="http://www.w3.org/2000/svg" xmlns:xlink="http://www.w3.org/1999/xlink" contentScriptType="application/ecmascript" contentStyleType="text/css" height="242px" preserveAspectRatio="none" style="width:244px;height:242px;" version="1.1" viewBox="0 0 244 242" width="244px" zoomAndPan="magnify"><defs><filter height="300%" id="f15ex3hoac3hqv" width="300%" x="-1" y="-1"><feGaussianBlur result="blurOut" stdDeviation="2.0"/><feColorMatrix in="blurOut" result="blurOut2" type="matrix" values="0 0 0 0 0 0 0 0 0 0 0 0 0 0 0 0 0 0 .4 0"/><feOffset dx="4.0" dy="4.0" in="blurOut2" result="blurOut3"/><feBlend in="SourceGraphic" in2="blurOut3" mode="normal"/></filter></defs><g><!--MD5=[a9a892f1fce37a78da8e7554e33c4bbd]
cluster Regulatory Association--><polygon fill="#DDDDDD" filter="url(#f15ex3hoac3hqv)" points="16,6,212,6,219,28.2969,222,28.2969,222,230,16,230,16,6" style="stroke: #000000; stroke-width: 1.5;"/><line style="stroke: #000000; stroke-width: 1.5;" x1="16" x2="219" y1="28.2969" y2="28.2969"/><text fill="#000000" font-family="sans-serif" font-size="14" font-weight="bold" lengthAdjust="spacingAndGlyphs" textLength="190" x="20" y="20.9951">Regulatory Association</text><!--MD5=[5213f8ec108ec6ee9c86235ee98e5f6b]
class AssociatedService--><rect codeLine="8" fill="#98FB98" filter="url(#f15ex3hoac3hqv)" height="48" id="AssociatedService" style="stroke: #00FF7F; stroke-width: 1.5;" width="145" x="45.5" y="41"/><ellipse cx="60.5" cy="57" fill="#ADD1B2" rx="11" ry="11" style="stroke: #00FF7F; stroke-width: 1.0;"/><path d="M62.8438,52.6719 C61.9063,52.2344 61.3125,52.0938 60.4375,52.0938 C57.8125,52.0938 55.8125,54.1719 55.8125,56.8906 L55.8125,58.0156 C55.8125,60.5938 57.9219,62.4844 60.8125,62.4844 C62.0313,62.4844 63.1875,62.1875 63.9375,61.6406 C64.5156,61.2344 64.8438,60.7813 64.8438,60.3906 C64.8438,59.9375 64.4531,59.5469 63.9844,59.5469 C63.7656,59.5469 63.5625,59.625 63.375,59.8125 C62.9219,60.2969 62.9219,60.2969 62.7344,60.3906 C62.3125,60.6563 61.625,60.7813 60.8594,60.7813 C58.8125,60.7813 57.5156,59.6875 57.5156,57.9844 L57.5156,56.8906 C57.5156,55.1094 58.7656,53.7969 60.5,53.7969 C61.0781,53.7969 61.6875,53.9531 62.1563,54.2031 C62.6406,54.4844 62.8125,54.7031 62.9063,55.1094 C62.9688,55.5156 63,55.6406 63.1406,55.7656 C63.2813,55.9063 63.5156,56.0156 63.7344,56.0156 C64,56.0156 64.2656,55.875 64.4375,55.6563 C64.5469,55.5 64.5781,55.3125 64.5781,54.8906 L64.5781,53.4688 C64.5781,53.0313 64.5625,52.9063 64.4688,52.75 C64.3125,52.4844 64.0313,52.3438 63.7344,52.3438 C63.4375,52.3438 63.2344,52.4375 63.0156,52.75 L62.8438,52.6719 Z "/><text fill="#000000" font-family="sans-serif" font-size="12" lengthAdjust="spacingAndGlyphs" textLength="113" x="74.5" y="61.1543">AssociatedService</text><line style="stroke: #00FF7F; stroke-width: 1.5;" x1="46.5" x2="189.5" y1="73" y2="73"/><line style="stroke: #00FF7F; stroke-width: 1.5;" x1="46.5" x2="189.5" y1="81" y2="81"/><!--MD5=[5a1b947d1c3f511b9baa431ed9b86924]
class SubElementaryService--><rect codeLine="9" fill="#98FB98" filter="url(#f15ex3hoac3hqv)" height="48" id="SubElementaryService" style="stroke: #00FF7F; stroke-width: 1.5;" width="168" x="35" y="166"/><ellipse cx="50" cy="182" fill="#ADD1B2" rx="11" ry="11" style="stroke: #00FF7F; stroke-width: 1.0;"/><path d="M52.3438,177.6719 C51.4063,177.2344 50.8125,177.0938 49.9375,177.0938 C47.3125,177.0938 45.3125,179.1719 45.3125,181.8906 L45.3125,183.0156 C45.3125,185.5938 47.4219,187.4844 50.3125,187.4844 C51.5313,187.4844 52.6875,187.1875 53.4375,186.6406 C54.0156,186.2344 54.3438,185.7813 54.3438,185.3906 C54.3438,184.9375 53.9531,184.5469 53.4844,184.5469 C53.2656,184.5469 53.0625,184.625 52.875,184.8125 C52.4219,185.2969 52.4219,185.2969 52.2344,185.3906 C51.8125,185.6563 51.125,185.7813 50.3594,185.7813 C48.3125,185.7813 47.0156,184.6875 47.0156,182.9844 L47.0156,181.8906 C47.0156,180.1094 48.2656,178.7969 50,178.7969 C50.5781,178.7969 51.1875,178.9531 51.6563,179.2031 C52.1406,179.4844 52.3125,179.7031 52.4063,180.1094 C52.4688,180.5156 52.5,180.6406 52.6406,180.7656 C52.7813,180.9063 53.0156,181.0156 53.2344,181.0156 C53.5,181.0156 53.7656,180.875 53.9375,180.6563 C54.0469,180.5 54.0781,180.3125 54.0781,179.8906 L54.0781,178.4688 C54.0781,178.0313 54.0625,177.9063 53.9688,177.75 C53.8125,177.4844 53.5313,177.3438 53.2344,177.3438 C52.9375,177.3438 52.7344,177.4375 52.5156,177.75 L52.3438,177.6719 Z "/><text fill="#000000" font-family="sans-serif" font-size="12" lengthAdjust="spacingAndGlyphs" textLength="136" x="64" y="186.1543">SubElementaryService</text><line style="stroke: #00FF7F; stroke-width: 1.5;" x1="36" x2="202" y1="198" y2="198"/><line style="stroke: #00FF7F; stroke-width: 1.5;" x1="36" x2="202" y1="206" y2="206"/><!--MD5=[cebfa5ff673c547095c27a7f5c2bcd9b]
link AssociatedService to SubElementaryService--><path codeLine="11" d="M118.188,89.135 C118.367,111.126 118.634,144.012 118.813,165.9684 " fill="none" id="AssociatedService-SubElementaryService" style="stroke: #2E8B57; stroke-width: 1.0;"/><text fill="#000000" font-family="sans-serif" font-size="13" lengthAdjust="spacingAndGlyphs" textLength="70" x="119" y="132.0669">consists-of</text><polygon fill="#000000" points="149.5,141.1328,152.5,147.1328,155.5,141.1328,149.5,141.1328" style="stroke: #000000; stroke-width: 1.0;"/><text fill="#000000" font-family="sans-serif" font-size="13" lengthAdjust="spacingAndGlyphs" textLength="8" x="109.2588" y="108.9291">1</text><text fill="#000000" font-family="sans-serif" font-size="13" lengthAdjust="spacingAndGlyphs" textLength="8" x="109.7401" y="154.9723">n</text><!--MD5=[9e0ca3ef93d5d6ecf6b7c9d4b75ae6a9]
@startuml
skinparam class {
BackgroundColor PaleGreen
ArrowColor SeaGreen
BorderColor SpringGreen
}
package "Regulatory Association" #DDDDDD {

class AssociatedService
class SubElementaryService

AssociatedService "1" - - "n" SubElementaryService : consists-of >

}
@enduml

PlantUML version 1.2020.17beta5(Unknown compile time)
(GPL source distribution)
Java Runtime: Java(TM) SE Runtime Environment
JVM: Java HotSpot(TM) 64-Bit Server VM
Default Encoding: UTF-8
Language: en
Country: US
--></g></svg>