<?xml version="1.0" encoding="UTF-8" standalone="no"?><svg xmlns="http://www.w3.org/2000/svg" xmlns:xlink="http://www.w3.org/1999/xlink" contentScriptType="application/ecmascript" contentStyleType="text/css" height="242px" preserveAspectRatio="none" style="width:242px;height:242px;" version="1.1" viewBox="0 0 242 242" width="242px" zoomAndPan="magnify"><defs><filter height="300%" id="f103gyo7sixb8y" width="300%" x="-1" y="-1"><feGaussianBlur result="blurOut" stdDeviation="2.0"/><feColorMatrix in="blurOut" result="blurOut2" type="matrix" values="0 0 0 0 0 0 0 0 0 0 0 0 0 0 0 0 0 0 .4 0"/><feOffset dx="4.0" dy="4.0" in="blurOut2" result="blurOut3"/><feBlend in="SourceGraphic" in2="blurOut3" mode="normal"/></filter></defs><g><!--MD5=[2f9648a2714d85057408d6eac403a362]
cluster Procedural Association--><polygon fill="#DDDDDD" filter="url(#f103gyo7sixb8y)" points="16,6,210,6,217,28.2969,220,28.2969,220,230,16,230,16,6" style="stroke: #000000; stroke-width: 1.5;"/><line style="stroke: #000000; stroke-width: 1.5;" x1="16" x2="217" y1="28.2969" y2="28.2969"/><text fill="#000000" font-family="sans-serif" font-size="14" font-weight="bold" lengthAdjust="spacingAndGlyphs" textLength="188" x="20" y="20.9951">Procedural Association</text><!--MD5=[5213f8ec108ec6ee9c86235ee98e5f6b]
class AssociatedService--><rect codeLine="8" fill="#98FB98" filter="url(#f103gyo7sixb8y)" height="48" id="AssociatedService" style="stroke: #00FF7F; stroke-width: 1.5;" width="145" x="45.5" y="41"/><ellipse cx="60.5" cy="57" fill="#ADD1B2" rx="11" ry="11" style="stroke: #00FF7F; stroke-width: 1.0;"/><path d="M62.8438,52.6719 C61.9063,52.2344 61.3125,52.0938 60.4375,52.0938 C57.8125,52.0938 55.8125,54.1719 55.8125,56.8906 L55.8125,58.0156 C55.8125,60.5938 57.9219,62.4844 60.8125,62.4844 C62.0313,62.4844 63.1875,62.1875 63.9375,61.6406 C64.5156,61.2344 64.8438,60.7813 64.8438,60.3906 C64.8438,59.9375 64.4531,59.5469 63.9844,59.5469 C63.7656,59.5469 63.5625,59.625 63.375,59.8125 C62.9219,60.2969 62.9219,60.2969 62.7344,60.3906 C62.3125,60.6563 61.625,60.7813 60.8594,60.7813 C58.8125,60.7813 57.5156,59.6875 57.5156,57.9844 L57.5156,56.8906 C57.5156,55.1094 58.7656,53.7969 60.5,53.7969 C61.0781,53.7969 61.6875,53.9531 62.1563,54.2031 C62.6406,54.4844 62.8125,54.7031 62.9063,55.1094 C62.9688,55.5156 63,55.6406 63.1406,55.7656 C63.2813,55.9063 63.5156,56.0156 63.7344,56.0156 C64,56.0156 64.2656,55.875 64.4375,55.6563 C64.5469,55.5 64.5781,55.3125 64.5781,54.8906 L64.5781,53.4688 C64.5781,53.0313 64.5625,52.9063 64.4688,52.75 C64.3125,52.4844 64.0313,52.3438 63.7344,52.3438 C63.4375,52.3438 63.2344,52.4375 63.0156,52.75 L62.8438,52.6719 Z "/><text fill="#000000" font-family="sans-serif" font-size="12" lengthAdjust="spacingAndGlyphs" textLength="113" x="74.5" y="61.1543">AssociatedService</text><line style="stroke: #00FF7F; stroke-width: 1.5;" x1="46.5" x2="189.5" y1="73" y2="73"/><line style="stroke: #00FF7F; stroke-width: 1.5;" x1="46.5" x2="189.5" y1="81" y2="81"/><!--MD5=[314185585d2f1e4d8d5c2f804717476e]
class ElementaryService--><rect codeLine="9" fill="#98FB98" filter="url(#f103gyo7sixb8y)" height="48" id="ElementaryService" style="stroke: #00FF7F; stroke-width: 1.5;" width="145" x="45.5" y="166"/><ellipse cx="60.5" cy="182" fill="#ADD1B2" rx="11" ry="11" style="stroke: #00FF7F; stroke-width: 1.0;"/><path d="M62.8438,177.6719 C61.9063,177.2344 61.3125,177.0938 60.4375,177.0938 C57.8125,177.0938 55.8125,179.1719 55.8125,181.8906 L55.8125,183.0156 C55.8125,185.5938 57.9219,187.4844 60.8125,187.4844 C62.0313,187.4844 63.1875,187.1875 63.9375,186.6406 C64.5156,186.2344 64.8438,185.7813 64.8438,185.3906 C64.8438,184.9375 64.4531,184.5469 63.9844,184.5469 C63.7656,184.5469 63.5625,184.625 63.375,184.8125 C62.9219,185.2969 62.9219,185.2969 62.7344,185.3906 C62.3125,185.6563 61.625,185.7813 60.8594,185.7813 C58.8125,185.7813 57.5156,184.6875 57.5156,182.9844 L57.5156,181.8906 C57.5156,180.1094 58.7656,178.7969 60.5,178.7969 C61.0781,178.7969 61.6875,178.9531 62.1563,179.2031 C62.6406,179.4844 62.8125,179.7031 62.9063,180.1094 C62.9688,180.5156 63,180.6406 63.1406,180.7656 C63.2813,180.9063 63.5156,181.0156 63.7344,181.0156 C64,181.0156 64.2656,180.875 64.4375,180.6563 C64.5469,180.5 64.5781,180.3125 64.5781,179.8906 L64.5781,178.4688 C64.5781,178.0313 64.5625,177.9063 64.4688,177.75 C64.3125,177.4844 64.0313,177.3438 63.7344,177.3438 C63.4375,177.3438 63.2344,177.4375 63.0156,177.75 L62.8438,177.6719 Z "/><text fill="#000000" font-family="sans-serif" font-size="12" lengthAdjust="spacingAndGlyphs" textLength="113" x="74.5" y="186.1543">ElementaryService</text><line style="stroke: #00FF7F; stroke-width: 1.5;" x1="46.5" x2="189.5" y1="198" y2="198"/><line style="stroke: #00FF7F; stroke-width: 1.5;" x1="46.5" x2="189.5" y1="206" y2="206"/><!--MD5=[151200b8d26dab787d67ce30152b367e]
link AssociatedService to ElementaryService--><path codeLine="11" d="M118,89.135 C118,111.126 118,144.012 118,165.9684 " fill="none" id="AssociatedService-ElementaryService" style="stroke: #2E8B57; stroke-width: 1.0;"/><text fill="#000000" font-family="sans-serif" font-size="13" lengthAdjust="spacingAndGlyphs" textLength="27" x="119" y="132.0669">own</text><polygon fill="#000000" points="128,141.1328,131,147.1328,134,141.1328,128,141.1328" style="stroke: #000000; stroke-width: 1.0;"/><text fill="#000000" font-family="sans-serif" font-size="13" lengthAdjust="spacingAndGlyphs" textLength="8" x="109.025" y="108.9291">1</text><text fill="#000000" font-family="sans-serif" font-size="13" lengthAdjust="spacingAndGlyphs" textLength="8" x="108.975" y="154.9723">n</text><!--MD5=[8ea8183594b142a456721162722076f8]
@startuml
skinparam class {
BackgroundColor PaleGreen
ArrowColor SeaGreen
BorderColor SpringGreen
}
package "Procedural Association" #DDDDDD {

class AssociatedService
class ElementaryService

AssociatedService "1" - - "n" ElementaryService : own >

}
@enduml

PlantUML version 1.2020.17beta5(Unknown compile time)
(GPL source distribution)
Java Runtime: Java(TM) SE Runtime Environment
JVM: Java HotSpot(TM) 64-Bit Server VM
Default Encoding: UTF-8
Language: en
Country: US
--></g></svg>