<?xml version="1.0" encoding="UTF-8" standalone="no"?><svg xmlns="http://www.w3.org/2000/svg" xmlns:xlink="http://www.w3.org/1999/xlink" contentScriptType="application/ecmascript" contentStyleType="text/css" height="225px" preserveAspectRatio="none" style="width:599px;height:225px;" version="1.1" viewBox="0 0 599 225" width="599px" zoomAndPan="magnify"><defs><filter height="300%" id="fokg572r6d463" width="300%" x="-1" y="-1"><feGaussianBlur result="blurOut" stdDeviation="2.0"/><feColorMatrix in="blurOut" result="blurOut2" type="matrix" values="0 0 0 0 0 0 0 0 0 0 0 0 0 0 0 0 0 0 .4 0"/><feOffset dx="4.0" dy="4.0" in="blurOut2" result="blurOut3"/><feBlend in="SourceGraphic" in2="blurOut3" mode="normal"/></filter></defs><g><!--MD5=[818db9ef50993780fbdfc076a2355953]
cluster Service Classes--><polygon fill="#DDDDDD" filter="url(#fokg572r6d463)" points="16,6,146,6,153,28.2969,577,28.2969,577,213,16,213,16,6" style="stroke: #000000; stroke-width: 1.5;"/><line style="stroke: #000000; stroke-width: 1.5;" x1="16" x2="153" y1="28.2969" y2="28.2969"/><text fill="#000000" font-family="sans-serif" font-size="14" font-weight="bold" lengthAdjust="spacingAndGlyphs" textLength="124" x="20" y="20.9951">Service Classes</text><!--MD5=[712b563cc473e30325783b864460eb85]
class AutomationService--><rect codeLine="8" fill="#98FB98" filter="url(#fokg572r6d463)" height="48" id="AutomationService" style="stroke: #00FF7F; stroke-width: 1.5;" width="146" x="212" y="41"/><ellipse cx="227" cy="57" fill="#A9DCDF" rx="11" ry="11" style="stroke: #00FF7F; stroke-width: 1.0;"/><path d="M229.0781,58.8125 L229.4688,59.7969 L229.0781,59.7969 C228.625,59.7969 228.5156,59.8125 228.3594,59.9219 C228.1094,60.0781 227.9531,60.3594 227.9531,60.6563 C227.9531,60.9219 228.0938,61.1719 228.3125,61.3281 C228.4531,61.4531 228.6563,61.5 229.0781,61.5 L231.4375,61.5 C231.7969,61.5 232.0156,61.4688 232.1563,61.375 C232.4063,61.2344 232.5625,60.9375 232.5625,60.6563 C232.5625,60.375 232.4219,60.125 232.2031,59.9688 C232.0313,59.8281 231.875,59.7969 231.4063,59.7969 L228.0156,51.5938 L224.3438,51.5938 C223.8906,51.5938 223.7656,51.6094 223.6094,51.7031 C223.3594,51.875 223.2031,52.1563 223.2031,52.4375 C223.2031,52.7188 223.3438,52.9688 223.5625,53.1406 C223.7344,53.25 223.9063,53.2813 224.3438,53.2813 L225.4219,53.2813 L222.7813,59.7969 C222.3594,59.7969 222.2031,59.8125 222.0469,59.9219 C221.7969,60.0781 221.6406,60.3594 221.6406,60.6563 C221.6406,61.2188 222.0156,61.5 222.7656,61.5 L225.0313,61.5 C225.3906,61.5 225.6094,61.4688 225.7344,61.375 C226,61.2344 226.1406,60.9375 226.1406,60.6563 C226.1406,60.375 226.0156,60.125 225.7969,59.9531 C225.625,59.8281 225.4844,59.7969 225.0313,59.7969 L224.6406,59.7969 L225.0313,58.8125 L229.0781,58.8125 Z M228.375,57.1094 L225.7031,57.1094 L227.0469,53.8438 L228.375,57.1094 Z "/><text fill="#000000" font-family="sans-serif" font-size="12" font-style="italic" lengthAdjust="spacingAndGlyphs" textLength="114" x="241" y="61.1543">AutomationService</text><line style="stroke: #00FF7F; stroke-width: 1.5;" x1="213" x2="357" y1="73" y2="73"/><line style="stroke: #00FF7F; stroke-width: 1.5;" x1="213" x2="357" y1="81" y2="81"/><!--MD5=[5213f8ec108ec6ee9c86235ee98e5f6b]
class AssociatedService--><rect codeLine="9" fill="#98FB98" filter="url(#fokg572r6d463)" height="48" id="AssociatedService" style="stroke: #00FF7F; stroke-width: 1.5;" width="145" x="32.5" y="149"/><ellipse cx="47.5" cy="165" fill="#ADD1B2" rx="11" ry="11" style="stroke: #00FF7F; stroke-width: 1.0;"/><path d="M49.8438,160.6719 C48.9063,160.2344 48.3125,160.0938 47.4375,160.0938 C44.8125,160.0938 42.8125,162.1719 42.8125,164.8906 L42.8125,166.0156 C42.8125,168.5938 44.9219,170.4844 47.8125,170.4844 C49.0313,170.4844 50.1875,170.1875 50.9375,169.6406 C51.5156,169.2344 51.8438,168.7813 51.8438,168.3906 C51.8438,167.9375 51.4531,167.5469 50.9844,167.5469 C50.7656,167.5469 50.5625,167.625 50.375,167.8125 C49.9219,168.2969 49.9219,168.2969 49.7344,168.3906 C49.3125,168.6563 48.625,168.7813 47.8594,168.7813 C45.8125,168.7813 44.5156,167.6875 44.5156,165.9844 L44.5156,164.8906 C44.5156,163.1094 45.7656,161.7969 47.5,161.7969 C48.0781,161.7969 48.6875,161.9531 49.1563,162.2031 C49.6406,162.4844 49.8125,162.7031 49.9063,163.1094 C49.9688,163.5156 50,163.6406 50.1406,163.7656 C50.2813,163.9063 50.5156,164.0156 50.7344,164.0156 C51,164.0156 51.2656,163.875 51.4375,163.6563 C51.5469,163.5 51.5781,163.3125 51.5781,162.8906 L51.5781,161.4688 C51.5781,161.0313 51.5625,160.9063 51.4688,160.75 C51.3125,160.4844 51.0313,160.3438 50.7344,160.3438 C50.4375,160.3438 50.2344,160.4375 50.0156,160.75 L49.8438,160.6719 Z "/><text fill="#000000" font-family="sans-serif" font-size="12" lengthAdjust="spacingAndGlyphs" textLength="113" x="61.5" y="169.1543">AssociatedService</text><line style="stroke: #00FF7F; stroke-width: 1.5;" x1="33.5" x2="176.5" y1="181" y2="181"/><line style="stroke: #00FF7F; stroke-width: 1.5;" x1="33.5" x2="176.5" y1="189" y2="189"/><!--MD5=[314185585d2f1e4d8d5c2f804717476e]
class ElementaryService--><rect codeLine="10" fill="#98FB98" filter="url(#fokg572r6d463)" height="48" id="ElementaryService" style="stroke: #00FF7F; stroke-width: 1.5;" width="145" x="212.5" y="149"/><ellipse cx="227.5" cy="165" fill="#ADD1B2" rx="11" ry="11" style="stroke: #00FF7F; stroke-width: 1.0;"/><path d="M229.8438,160.6719 C228.9063,160.2344 228.3125,160.0938 227.4375,160.0938 C224.8125,160.0938 222.8125,162.1719 222.8125,164.8906 L222.8125,166.0156 C222.8125,168.5938 224.9219,170.4844 227.8125,170.4844 C229.0313,170.4844 230.1875,170.1875 230.9375,169.6406 C231.5156,169.2344 231.8438,168.7813 231.8438,168.3906 C231.8438,167.9375 231.4531,167.5469 230.9844,167.5469 C230.7656,167.5469 230.5625,167.625 230.375,167.8125 C229.9219,168.2969 229.9219,168.2969 229.7344,168.3906 C229.3125,168.6563 228.625,168.7813 227.8594,168.7813 C225.8125,168.7813 224.5156,167.6875 224.5156,165.9844 L224.5156,164.8906 C224.5156,163.1094 225.7656,161.7969 227.5,161.7969 C228.0781,161.7969 228.6875,161.9531 229.1563,162.2031 C229.6406,162.4844 229.8125,162.7031 229.9063,163.1094 C229.9688,163.5156 230,163.6406 230.1406,163.7656 C230.2813,163.9063 230.5156,164.0156 230.7344,164.0156 C231,164.0156 231.2656,163.875 231.4375,163.6563 C231.5469,163.5 231.5781,163.3125 231.5781,162.8906 L231.5781,161.4688 C231.5781,161.0313 231.5625,160.9063 231.4688,160.75 C231.3125,160.4844 231.0313,160.3438 230.7344,160.3438 C230.4375,160.3438 230.2344,160.4375 230.0156,160.75 L229.8438,160.6719 Z "/><text fill="#000000" font-family="sans-serif" font-size="12" lengthAdjust="spacingAndGlyphs" textLength="113" x="241.5" y="169.1543">ElementaryService</text><line style="stroke: #00FF7F; stroke-width: 1.5;" x1="213.5" x2="356.5" y1="181" y2="181"/><line style="stroke: #00FF7F; stroke-width: 1.5;" x1="213.5" x2="356.5" y1="189" y2="189"/><!--MD5=[5a1b947d1c3f511b9baa431ed9b86924]
class SubElementaryService--><rect codeLine="11" fill="#98FB98" filter="url(#fokg572r6d463)" height="48" id="SubElementaryService" style="stroke: #00FF7F; stroke-width: 1.5;" width="168" x="393" y="149"/><ellipse cx="408" cy="165" fill="#ADD1B2" rx="11" ry="11" style="stroke: #00FF7F; stroke-width: 1.0;"/><path d="M410.3438,160.6719 C409.4063,160.2344 408.8125,160.0938 407.9375,160.0938 C405.3125,160.0938 403.3125,162.1719 403.3125,164.8906 L403.3125,166.0156 C403.3125,168.5938 405.4219,170.4844 408.3125,170.4844 C409.5313,170.4844 410.6875,170.1875 411.4375,169.6406 C412.0156,169.2344 412.3438,168.7813 412.3438,168.3906 C412.3438,167.9375 411.9531,167.5469 411.4844,167.5469 C411.2656,167.5469 411.0625,167.625 410.875,167.8125 C410.4219,168.2969 410.4219,168.2969 410.2344,168.3906 C409.8125,168.6563 409.125,168.7813 408.3594,168.7813 C406.3125,168.7813 405.0156,167.6875 405.0156,165.9844 L405.0156,164.8906 C405.0156,163.1094 406.2656,161.7969 408,161.7969 C408.5781,161.7969 409.1875,161.9531 409.6563,162.2031 C410.1406,162.4844 410.3125,162.7031 410.4063,163.1094 C410.4688,163.5156 410.5,163.6406 410.6406,163.7656 C410.7813,163.9063 411.0156,164.0156 411.2344,164.0156 C411.5,164.0156 411.7656,163.875 411.9375,163.6563 C412.0469,163.5 412.0781,163.3125 412.0781,162.8906 L412.0781,161.4688 C412.0781,161.0313 412.0625,160.9063 411.9688,160.75 C411.8125,160.4844 411.5313,160.3438 411.2344,160.3438 C410.9375,160.3438 410.7344,160.4375 410.5156,160.75 L410.3438,160.6719 Z "/><text fill="#000000" font-family="sans-serif" font-size="12" lengthAdjust="spacingAndGlyphs" textLength="136" x="422" y="169.1543">SubElementaryService</text><line style="stroke: #00FF7F; stroke-width: 1.5;" x1="394" x2="560" y1="181" y2="181"/><line style="stroke: #00FF7F; stroke-width: 1.5;" x1="394" x2="560" y1="189" y2="189"/><!--MD5=[8883a3a408e7a3a3403c0d93c56752cb]
reverse link AutomationService to AssociatedService--><path codeLine="13" d="M228.365,99.352 C201.027,115.451 168.904,134.3677 144.291,148.8617 " fill="none" id="AutomationService-backto-AssociatedService" style="stroke: #2E8B57; stroke-width: 1.0;"/><polygon fill="none" points="225.157,93.117,245.943,89,232.261,105.181,225.157,93.117" style="stroke: #2E8B57; stroke-width: 1.0;"/><!--MD5=[32edadd9d818e5b70f8495cc71f064ac]
reverse link AutomationService to ElementaryService--><path codeLine="14" d="M285,109.024 C285,122.579 285,137.0381 285,148.6784 " fill="none" id="AutomationService-backto-ElementaryService" style="stroke: #2E8B57; stroke-width: 1.0;"/><polygon fill="none" points="278,109,285,89,292,109,278,109" style="stroke: #2E8B57; stroke-width: 1.0;"/><!--MD5=[77e08c894ed38b006ef94cfe33dbf14f]
reverse link AutomationService to SubElementaryService--><path codeLine="15" d="M344.575,98.89 C373.915,115.089 408.585,134.229 435.089,148.8617 " fill="none" id="AutomationService-backto-SubElementaryService" style="stroke: #2E8B57; stroke-width: 1.0;"/><polygon fill="none" points="340.787,104.795,326.661,89,347.553,92.539,340.787,104.795" style="stroke: #2E8B57; stroke-width: 1.0;"/><!--MD5=[a2d22f268dbf36af1633be6fc59c24e6]
@startuml
skinparam class {
BackgroundColor PaleGreen
ArrowColor SeaGreen
BorderColor SpringGreen
}
package "Service Classes" #DDDDDD {

abstract class AutomationService
class AssociatedService
class ElementaryService
class SubElementaryService

AutomationService <|- - AssociatedService
AutomationService <|- - ElementaryService
AutomationService <|- - SubElementaryService
}
@enduml

PlantUML version 1.2020.17beta5(Unknown compile time)
(GPL source distribution)
Java Runtime: Java(TM) SE Runtime Environment
JVM: Java HotSpot(TM) 64-Bit Server VM
Default Encoding: UTF-8
Language: en
Country: US
--></g></svg>