<?xml version="1.0" encoding="UTF-8" standalone="no"?><svg xmlns="http://www.w3.org/2000/svg" xmlns:xlink="http://www.w3.org/1999/xlink" contentScriptType="application/ecmascript" contentStyleType="text/css" height="334px" preserveAspectRatio="none" style="width:432px;height:334px;" version="1.1" viewBox="0 0 432 334" width="432px" zoomAndPan="magnify"><defs><filter height="300%" id="f2mdrj9e9knd0" width="300%" x="-1" y="-1"><feGaussianBlur result="blurOut" stdDeviation="2.0"/><feColorMatrix in="blurOut" result="blurOut2" type="matrix" values="0 0 0 0 0 0 0 0 0 0 0 0 0 0 0 0 0 0 .4 0"/><feOffset dx="4.0" dy="4.0" in="blurOut2" result="blurOut3"/><feBlend in="SourceGraphic" in2="blurOut3" mode="normal"/></filter></defs><g><!--MD5=[bc61ba76171bc227019e6078f3f76115]
cluster Choreographed Association--><polygon fill="#DDDDDD" filter="url(#f2mdrj9e9knd0)" points="16,6,245,6,252,28.2969,410,28.2969,410,322,16,322,16,6" style="stroke: #000000; stroke-width: 1.5;"/><line style="stroke: #000000; stroke-width: 1.5;" x1="16" x2="252" y1="28.2969" y2="28.2969"/><text fill="#000000" font-family="sans-serif" font-size="14" font-weight="bold" lengthAdjust="spacingAndGlyphs" textLength="223" x="20" y="20.9951">Choreographed Association</text><!--MD5=[5213f8ec108ec6ee9c86235ee98e5f6b]
class AssociatedService--><rect codeLine="12" fill="#98FB98" filter="url(#f2mdrj9e9knd0)" height="53.9375" id="AssociatedService" style="stroke: #00FF7F; stroke-width: 1.5;" width="180" x="123" y="127"/><ellipse cx="138" cy="145.9688" fill="#ADD1B2" rx="11" ry="11" style="stroke: #00FF7F; stroke-width: 1.0;"/><path d="M140.3438,141.6406 C139.4063,141.2031 138.8125,141.0625 137.9375,141.0625 C135.3125,141.0625 133.3125,143.1406 133.3125,145.8594 L133.3125,146.9844 C133.3125,149.5625 135.4219,151.4531 138.3125,151.4531 C139.5313,151.4531 140.6875,151.1563 141.4375,150.6094 C142.0156,150.2031 142.3438,149.75 142.3438,149.3594 C142.3438,148.9063 141.9531,148.5156 141.4844,148.5156 C141.2656,148.5156 141.0625,148.5938 140.875,148.7813 C140.4219,149.2656 140.4219,149.2656 140.2344,149.3594 C139.8125,149.625 139.125,149.75 138.3594,149.75 C136.3125,149.75 135.0156,148.6563 135.0156,146.9531 L135.0156,145.8594 C135.0156,144.0781 136.2656,142.7656 138,142.7656 C138.5781,142.7656 139.1875,142.9219 139.6563,143.1719 C140.1406,143.4531 140.3125,143.6719 140.4063,144.0781 C140.4688,144.4844 140.5,144.6094 140.6406,144.7344 C140.7813,144.875 141.0156,144.9844 141.2344,144.9844 C141.5,144.9844 141.7656,144.8438 141.9375,144.625 C142.0469,144.4688 142.0781,144.2813 142.0781,143.8594 L142.0781,142.4375 C142.0781,142 142.0625,141.875 141.9688,141.7188 C141.8125,141.4531 141.5313,141.3125 141.2344,141.3125 C140.9375,141.3125 140.7344,141.4063 140.5156,141.7188 L140.3438,141.6406 Z "/><text fill="#000000" font-family="sans-serif" font-size="12" font-style="italic" lengthAdjust="spacingAndGlyphs" textLength="152" x="150" y="143.1387">«implicitly implemented»</text><text fill="#000000" font-family="sans-serif" font-size="12" lengthAdjust="spacingAndGlyphs" textLength="113" x="169.5" y="157.1074">AssociatedService</text><line style="stroke: #00FF7F; stroke-width: 1.5;" x1="124" x2="302" y1="164.9375" y2="164.9375"/><line style="stroke: #00FF7F; stroke-width: 1.5;" x1="124" x2="302" y1="172.9375" y2="172.9375"/><path d="M32.5,41 L32.5,66.1328 A0,0 0 0 0 32.5,66.1328 L209,66.1328 L213,126.931 L217,66.1328 L393.5,66.1328 A0,0 0 0 0 393.5,66.1328 L393.5,51 L383.5,41 L32.5,41 A0,0 0 0 0 32.5,41 " fill="#FBFB77" filter="url(#f2mdrj9e9knd0)" style="stroke: #A80036; stroke-width: 1.0;"/><path d="M383.5,41 L383.5,51 L393.5,51 L383.5,41 " fill="#FBFB77" style="stroke: #A80036; stroke-width: 1.0;"/><text fill="#000000" font-family="sans-serif" font-size="13" lengthAdjust="spacingAndGlyphs" textLength="340" x="38.5" y="58.0669">association following the choreography methodology</text><!--MD5=[712b563cc473e30325783b864460eb85]
class AutomationService--><rect codeLine="13" fill="#98FB98" filter="url(#f2mdrj9e9knd0)" height="48" id="AutomationService" style="stroke: #00FF7F; stroke-width: 1.5;" width="145" x="140.5" y="258"/><ellipse cx="155.5" cy="274" fill="#ADD1B2" rx="11" ry="11" style="stroke: #00FF7F; stroke-width: 1.0;"/><path d="M157.8438,269.6719 C156.9063,269.2344 156.3125,269.0938 155.4375,269.0938 C152.8125,269.0938 150.8125,271.1719 150.8125,273.8906 L150.8125,275.0156 C150.8125,277.5938 152.9219,279.4844 155.8125,279.4844 C157.0313,279.4844 158.1875,279.1875 158.9375,278.6406 C159.5156,278.2344 159.8438,277.7813 159.8438,277.3906 C159.8438,276.9375 159.4531,276.5469 158.9844,276.5469 C158.7656,276.5469 158.5625,276.625 158.375,276.8125 C157.9219,277.2969 157.9219,277.2969 157.7344,277.3906 C157.3125,277.6563 156.625,277.7813 155.8594,277.7813 C153.8125,277.7813 152.5156,276.6875 152.5156,274.9844 L152.5156,273.8906 C152.5156,272.1094 153.7656,270.7969 155.5,270.7969 C156.0781,270.7969 156.6875,270.9531 157.1563,271.2031 C157.6406,271.4844 157.8125,271.7031 157.9063,272.1094 C157.9688,272.5156 158,272.6406 158.1406,272.7656 C158.2813,272.9063 158.5156,273.0156 158.7344,273.0156 C159,273.0156 159.2656,272.875 159.4375,272.6563 C159.5469,272.5 159.5781,272.3125 159.5781,271.8906 L159.5781,270.4688 C159.5781,270.0313 159.5625,269.9063 159.4688,269.75 C159.3125,269.4844 159.0313,269.3438 158.7344,269.3438 C158.4375,269.3438 158.2344,269.4375 158.0156,269.75 L157.8438,269.6719 Z "/><text fill="#000000" font-family="sans-serif" font-size="12" lengthAdjust="spacingAndGlyphs" textLength="113" x="169.5" y="278.1543">AutomationService</text><line style="stroke: #00FF7F; stroke-width: 1.5;" x1="141.5" x2="284.5" y1="290" y2="290"/><line style="stroke: #00FF7F; stroke-width: 1.5;" x1="141.5" x2="284.5" y1="298" y2="298"/><ellipse cx="83" cy="154" fill="#98FB98" filter="url(#f2mdrj9e9knd0)" rx="5" ry="5" style="stroke: #00FF7F; stroke-width: 1.5;"/><text fill="#000000" font-family="sans-serif" font-size="12" lengthAdjust="spacingAndGlyphs" textLength="46" x="60" y="170.1387">Service</text><!--MD5=[1147c688f13cb75dd2c74e4db912edb1]
link AssociatedService to AutomationService--><path codeLine="15" d="M213,181.107 C213,203.741 213,236.184 213,257.8919 " fill="none" id="AssociatedService-AutomationService" style="stroke: #2E8B57; stroke-width: 1.0;"/><text fill="#000000" font-family="sans-serif" font-size="13" lengthAdjust="spacingAndGlyphs" textLength="23" x="214" y="224.0669">use</text><polygon fill="#000000" points="221,233.1328,224,239.1328,227,233.1328,221,233.1328" style="stroke: #000000; stroke-width: 1.0;"/><!--MD5=[91e059545eb1049c80986dc00ee855b8]
link AssociatedServicelol213312 to AssociatedService--><path d="M88.0781,154 C99.6269,154 111.176,154 122.724,154 " fill="none" id="AssociatedServicelol213312-AssociatedService" style="stroke: #2E8B57; stroke-width: 1.0;"/><!--MD5=[c772c67becfe5cedbfbd8a9215226fd1]
@startuml
skinparam class {
BackgroundColor PaleGreen
ArrowColor SeaGreen
BorderColor SpringGreen
}
package "Choreographed Association" #DDDDDD {

note top of AssociatedService 
association following the choreography methodology
end note 

class AssociatedService << implicitly implemented >>
class AutomationService

AssociatedService - - AutomationService : use >
Service ()- AssociatedService

}
@enduml

PlantUML version 1.2020.17beta5(Unknown compile time)
(GPL source distribution)
Java Runtime: Java(TM) SE Runtime Environment
JVM: Java HotSpot(TM) 64-Bit Server VM
Default Encoding: UTF-8
Language: en
Country: US
--></g></svg>