<?xml version="1.0" encoding="UTF-8" standalone="no"?><svg xmlns="http://www.w3.org/2000/svg" xmlns:xlink="http://www.w3.org/1999/xlink" contentScriptType="application/ecmascript" contentStyleType="text/css" height="351px" preserveAspectRatio="none" style="width:419px;height:351px;" version="1.1" viewBox="0 0 419 351" width="419px" zoomAndPan="magnify"><defs><filter height="300%" id="f1gj7sh0oukf4l" width="300%" x="-1" y="-1"><feGaussianBlur result="blurOut" stdDeviation="2.0"/><feColorMatrix in="blurOut" result="blurOut2" type="matrix" values="0 0 0 0 0 0 0 0 0 0 0 0 0 0 0 0 0 0 .4 0"/><feOffset dx="4.0" dy="4.0" in="blurOut2" result="blurOut3"/><feBlend in="SourceGraphic" in2="blurOut3" mode="normal"/></filter></defs><g><!--MD5=[9d2b884fc6b8b51a8a222d4642a39136]
cluster Service Association--><polygon fill="#DDDDDD" filter="url(#f1gj7sh0oukf4l)" points="16,6,181,6,188,28.2969,397,28.2969,397,339,16,339,16,6" style="stroke: #000000; stroke-width: 1.5;"/><line style="stroke: #000000; stroke-width: 1.5;" x1="16" x2="188" y1="28.2969" y2="28.2969"/><text fill="#000000" font-family="sans-serif" font-size="14" font-weight="bold" lengthAdjust="spacingAndGlyphs" textLength="159" x="20" y="20.9951">Service Association</text><!--MD5=[712b563cc473e30325783b864460eb85]
class AutomationService--><rect codeLine="8" fill="#98FB98" filter="url(#f1gj7sh0oukf4l)" height="48" id="AutomationService" style="stroke: #00FF7F; stroke-width: 1.5;" width="146" x="128" y="166"/><ellipse cx="143" cy="182" fill="#A9DCDF" rx="11" ry="11" style="stroke: #00FF7F; stroke-width: 1.0;"/><path d="M145.0781,183.8125 L145.4688,184.7969 L145.0781,184.7969 C144.625,184.7969 144.5156,184.8125 144.3594,184.9219 C144.1094,185.0781 143.9531,185.3594 143.9531,185.6563 C143.9531,185.9219 144.0938,186.1719 144.3125,186.3281 C144.4531,186.4531 144.6563,186.5 145.0781,186.5 L147.4375,186.5 C147.7969,186.5 148.0156,186.4688 148.1563,186.375 C148.4063,186.2344 148.5625,185.9375 148.5625,185.6563 C148.5625,185.375 148.4219,185.125 148.2031,184.9688 C148.0313,184.8281 147.875,184.7969 147.4063,184.7969 L144.0156,176.5938 L140.3438,176.5938 C139.8906,176.5938 139.7656,176.6094 139.6094,176.7031 C139.3594,176.875 139.2031,177.1563 139.2031,177.4375 C139.2031,177.7188 139.3438,177.9688 139.5625,178.1406 C139.7344,178.25 139.9063,178.2813 140.3438,178.2813 L141.4219,178.2813 L138.7813,184.7969 C138.3594,184.7969 138.2031,184.8125 138.0469,184.9219 C137.7969,185.0781 137.6406,185.3594 137.6406,185.6563 C137.6406,186.2188 138.0156,186.5 138.7656,186.5 L141.0313,186.5 C141.3906,186.5 141.6094,186.4688 141.7344,186.375 C142,186.2344 142.1406,185.9375 142.1406,185.6563 C142.1406,185.375 142.0156,185.125 141.7969,184.9531 C141.625,184.8281 141.4844,184.7969 141.0313,184.7969 L140.6406,184.7969 L141.0313,183.8125 L145.0781,183.8125 Z M144.375,182.1094 L141.7031,182.1094 L143.0469,178.8438 L144.375,182.1094 Z "/><text fill="#000000" font-family="sans-serif" font-size="12" font-style="italic" lengthAdjust="spacingAndGlyphs" textLength="114" x="157" y="186.1543">AutomationService</text><line style="stroke: #00FF7F; stroke-width: 1.5;" x1="129" x2="273" y1="198" y2="198"/><line style="stroke: #00FF7F; stroke-width: 1.5;" x1="129" x2="273" y1="206" y2="206"/><!--MD5=[5213f8ec108ec6ee9c86235ee98e5f6b]
class AssociatedService--><rect codeLine="9" fill="#98FB98" filter="url(#f1gj7sh0oukf4l)" height="48" id="AssociatedService" style="stroke: #00FF7F; stroke-width: 1.5;" width="145" x="128.5" y="41"/><ellipse cx="143.5" cy="57" fill="#ADD1B2" rx="11" ry="11" style="stroke: #00FF7F; stroke-width: 1.0;"/><path d="M145.8438,52.6719 C144.9063,52.2344 144.3125,52.0938 143.4375,52.0938 C140.8125,52.0938 138.8125,54.1719 138.8125,56.8906 L138.8125,58.0156 C138.8125,60.5938 140.9219,62.4844 143.8125,62.4844 C145.0313,62.4844 146.1875,62.1875 146.9375,61.6406 C147.5156,61.2344 147.8438,60.7813 147.8438,60.3906 C147.8438,59.9375 147.4531,59.5469 146.9844,59.5469 C146.7656,59.5469 146.5625,59.625 146.375,59.8125 C145.9219,60.2969 145.9219,60.2969 145.7344,60.3906 C145.3125,60.6563 144.625,60.7813 143.8594,60.7813 C141.8125,60.7813 140.5156,59.6875 140.5156,57.9844 L140.5156,56.8906 C140.5156,55.1094 141.7656,53.7969 143.5,53.7969 C144.0781,53.7969 144.6875,53.9531 145.1563,54.2031 C145.6406,54.4844 145.8125,54.7031 145.9063,55.1094 C145.9688,55.5156 146,55.6406 146.1406,55.7656 C146.2813,55.9063 146.5156,56.0156 146.7344,56.0156 C147,56.0156 147.2656,55.875 147.4375,55.6563 C147.5469,55.5 147.5781,55.3125 147.5781,54.8906 L147.5781,53.4688 C147.5781,53.0313 147.5625,52.9063 147.4688,52.75 C147.3125,52.4844 147.0313,52.3438 146.7344,52.3438 C146.4375,52.3438 146.2344,52.4375 146.0156,52.75 L145.8438,52.6719 Z "/><text fill="#000000" font-family="sans-serif" font-size="12" lengthAdjust="spacingAndGlyphs" textLength="113" x="157.5" y="61.1543">AssociatedService</text><line style="stroke: #00FF7F; stroke-width: 1.5;" x1="129.5" x2="272.5" y1="73" y2="73"/><line style="stroke: #00FF7F; stroke-width: 1.5;" x1="129.5" x2="272.5" y1="81" y2="81"/><!--MD5=[314185585d2f1e4d8d5c2f804717476e]
class ElementaryService--><rect codeLine="10" fill="#98FB98" filter="url(#f1gj7sh0oukf4l)" height="48" id="ElementaryService" style="stroke: #00FF7F; stroke-width: 1.5;" width="145" x="32.5" y="275"/><ellipse cx="47.5" cy="291" fill="#ADD1B2" rx="11" ry="11" style="stroke: #00FF7F; stroke-width: 1.0;"/><path d="M49.8438,286.6719 C48.9063,286.2344 48.3125,286.0938 47.4375,286.0938 C44.8125,286.0938 42.8125,288.1719 42.8125,290.8906 L42.8125,292.0156 C42.8125,294.5938 44.9219,296.4844 47.8125,296.4844 C49.0313,296.4844 50.1875,296.1875 50.9375,295.6406 C51.5156,295.2344 51.8438,294.7813 51.8438,294.3906 C51.8438,293.9375 51.4531,293.5469 50.9844,293.5469 C50.7656,293.5469 50.5625,293.625 50.375,293.8125 C49.9219,294.2969 49.9219,294.2969 49.7344,294.3906 C49.3125,294.6563 48.625,294.7813 47.8594,294.7813 C45.8125,294.7813 44.5156,293.6875 44.5156,291.9844 L44.5156,290.8906 C44.5156,289.1094 45.7656,287.7969 47.5,287.7969 C48.0781,287.7969 48.6875,287.9531 49.1563,288.2031 C49.6406,288.4844 49.8125,288.7031 49.9063,289.1094 C49.9688,289.5156 50,289.6406 50.1406,289.7656 C50.2813,289.9063 50.5156,290.0156 50.7344,290.0156 C51,290.0156 51.2656,289.875 51.4375,289.6563 C51.5469,289.5 51.5781,289.3125 51.5781,288.8906 L51.5781,287.4688 C51.5781,287.0313 51.5625,286.9063 51.4688,286.75 C51.3125,286.4844 51.0313,286.3438 50.7344,286.3438 C50.4375,286.3438 50.2344,286.4375 50.0156,286.75 L49.8438,286.6719 Z "/><text fill="#000000" font-family="sans-serif" font-size="12" lengthAdjust="spacingAndGlyphs" textLength="113" x="61.5" y="295.1543">ElementaryService</text><line style="stroke: #00FF7F; stroke-width: 1.5;" x1="33.5" x2="176.5" y1="307" y2="307"/><line style="stroke: #00FF7F; stroke-width: 1.5;" x1="33.5" x2="176.5" y1="315" y2="315"/><!--MD5=[5a1b947d1c3f511b9baa431ed9b86924]
class SubElementaryService--><rect codeLine="11" fill="#98FB98" filter="url(#f1gj7sh0oukf4l)" height="48" id="SubElementaryService" style="stroke: #00FF7F; stroke-width: 1.5;" width="168" x="213" y="275"/><ellipse cx="228" cy="291" fill="#ADD1B2" rx="11" ry="11" style="stroke: #00FF7F; stroke-width: 1.0;"/><path d="M230.3438,286.6719 C229.4063,286.2344 228.8125,286.0938 227.9375,286.0938 C225.3125,286.0938 223.3125,288.1719 223.3125,290.8906 L223.3125,292.0156 C223.3125,294.5938 225.4219,296.4844 228.3125,296.4844 C229.5313,296.4844 230.6875,296.1875 231.4375,295.6406 C232.0156,295.2344 232.3438,294.7813 232.3438,294.3906 C232.3438,293.9375 231.9531,293.5469 231.4844,293.5469 C231.2656,293.5469 231.0625,293.625 230.875,293.8125 C230.4219,294.2969 230.4219,294.2969 230.2344,294.3906 C229.8125,294.6563 229.125,294.7813 228.3594,294.7813 C226.3125,294.7813 225.0156,293.6875 225.0156,291.9844 L225.0156,290.8906 C225.0156,289.1094 226.2656,287.7969 228,287.7969 C228.5781,287.7969 229.1875,287.9531 229.6563,288.2031 C230.1406,288.4844 230.3125,288.7031 230.4063,289.1094 C230.4688,289.5156 230.5,289.6406 230.6406,289.7656 C230.7813,289.9063 231.0156,290.0156 231.2344,290.0156 C231.5,290.0156 231.7656,289.875 231.9375,289.6563 C232.0469,289.5 232.0781,289.3125 232.0781,288.8906 L232.0781,287.4688 C232.0781,287.0313 232.0625,286.9063 231.9688,286.75 C231.8125,286.4844 231.5313,286.3438 231.2344,286.3438 C230.9375,286.3438 230.7344,286.4375 230.5156,286.75 L230.3438,286.6719 Z "/><text fill="#000000" font-family="sans-serif" font-size="12" lengthAdjust="spacingAndGlyphs" textLength="136" x="242" y="295.1543">SubElementaryService</text><line style="stroke: #00FF7F; stroke-width: 1.5;" x1="214" x2="380" y1="307" y2="307"/><line style="stroke: #00FF7F; stroke-width: 1.5;" x1="214" x2="380" y1="315" y2="315"/><!--MD5=[1147c688f13cb75dd2c74e4db912edb1]
link AssociatedService to AutomationService--><path codeLine="13" d="M201,89.135 C201,111.126 201,144.012 201,165.968 " fill="none" id="AssociatedService-AutomationService" style="stroke: #2E8B57; stroke-width: 1.0;"/><text fill="#000000" font-family="sans-serif" font-size="13" lengthAdjust="spacingAndGlyphs" textLength="32" x="202" y="132.0669">have</text><polygon fill="#000000" points="213.5,141.1328,216.5,147.1328,219.5,141.1328,213.5,141.1328" style="stroke: #000000; stroke-width: 1.0;"/><text fill="#000000" font-family="sans-serif" font-size="13" lengthAdjust="spacingAndGlyphs" textLength="8" x="192.025" y="108.9291">1</text><text fill="#000000" font-family="sans-serif" font-size="13" lengthAdjust="spacingAndGlyphs" textLength="8" x="191.975" y="154.9718">n</text><!--MD5=[32edadd9d818e5b70f8495cc71f064ac]
reverse link AutomationService to ElementaryService--><path codeLine="14" d="M166.711,229.218 C153.033,244.463 137.733,261.516 125.79,274.8279 " fill="none" id="AutomationService-backto-ElementaryService" style="stroke: #2E8B57; stroke-width: 1.0;"/><polygon fill="none" points="161.603,224.429,180.169,214.217,172.024,233.779,161.603,224.429" style="stroke: #2E8B57; stroke-width: 1.0;"/><!--MD5=[77e08c894ed38b006ef94cfe33dbf14f]
reverse link AutomationService to SubElementaryService--><path codeLine="15" d="M235.289,229.218 C248.967,244.463 264.267,261.516 276.21,274.8279 " fill="none" id="AutomationService-backto-SubElementaryService" style="stroke: #2E8B57; stroke-width: 1.0;"/><polygon fill="none" points="229.976,233.779,221.831,214.217,240.397,224.429,229.976,233.779" style="stroke: #2E8B57; stroke-width: 1.0;"/><!--MD5=[c18c83a20a2fbf5fd0a23f42476f519b]
@startuml
skinparam class {
BackgroundColor PaleGreen
ArrowColor SeaGreen
BorderColor SpringGreen
}
package "Service Association" #DDDDDD {

abstract class AutomationService
class AssociatedService
class ElementaryService
class SubElementaryService

AssociatedService "1" - - "n" AutomationService : have >
AutomationService <|- - ElementaryService
AutomationService <|- - SubElementaryService
}
@enduml

PlantUML version 1.2020.17beta5(Unknown compile time)
(GPL source distribution)
Java Runtime: Java(TM) SE Runtime Environment
JVM: Java HotSpot(TM) 64-Bit Server VM
Default Encoding: UTF-8
Language: en
Country: US
--></g></svg>