<?xml version="1.0" encoding="UTF-8" standalone="no"?><svg xmlns="http://www.w3.org/2000/svg" xmlns:xlink="http://www.w3.org/1999/xlink" contentScriptType="application/ecmascript" contentStyleType="text/css" height="357px" preserveAspectRatio="none" style="width:314px;height:357px;" version="1.1" viewBox="0 0 314 357" width="314px" zoomAndPan="magnify"><defs><filter height="300%" id="f1v5tn9cpswm01" width="300%" x="-1" y="-1"><feGaussianBlur result="blurOut" stdDeviation="2.0"/><feColorMatrix in="blurOut" result="blurOut2" type="matrix" values="0 0 0 0 0 0 0 0 0 0 0 0 0 0 0 0 0 0 .4 0"/><feOffset dx="4.0" dy="4.0" in="blurOut2" result="blurOut3"/><feBlend in="SourceGraphic" in2="blurOut3" mode="normal"/></filter></defs><g><!--MD5=[2da689ad40c60bdeec7efdb990c8f7e8]
cluster PEA A--><polygon fill="#DDDDDD" filter="url(#f1v5tn9cpswm01)" points="16,6,68,6,75,28.2969,292,28.2969,292,197,16,197,16,6" style="stroke: #000000; stroke-width: 1.5;"/><line style="stroke: #000000; stroke-width: 1.5;" x1="16" x2="75" y1="28.2969" y2="28.2969"/><text fill="#000000" font-family="sans-serif" font-size="14" font-weight="bold" lengthAdjust="spacingAndGlyphs" textLength="46" x="20" y="20.9951">PEA A</text><!--MD5=[c22f85c90ab4583ee3900892257ac1e9]
cluster PEA A1--><polygon fill="#DDDDDD" filter="url(#f1v5tn9cpswm01)" points="24,246,86,246,93,268.2969,142,268.2969,142,345,24,345,24,246" style="stroke: #000000; stroke-width: 1.5;"/><line style="stroke: #000000; stroke-width: 1.5;" x1="24" x2="93" y1="268.2969" y2="268.2969"/><text fill="#000000" font-family="sans-serif" font-size="14" font-weight="bold" lengthAdjust="spacingAndGlyphs" textLength="56" x="28" y="260.9951">PEA A1</text><!--MD5=[6e77e27f1934ac185a19b79e39aa15ca]
cluster PEA A2--><polygon fill="#DDDDDD" filter="url(#f1v5tn9cpswm01)" points="166,246,228,246,235,268.2969,284,268.2969,284,345,166,345,166,246" style="stroke: #000000; stroke-width: 1.5;"/><line style="stroke: #000000; stroke-width: 1.5;" x1="166" x2="235" y1="268.2969" y2="268.2969"/><text fill="#000000" font-family="sans-serif" font-size="14" font-weight="bold" lengthAdjust="spacingAndGlyphs" textLength="56" x="170" y="260.9951">PEA A2</text><!--MD5=[aa4bd638d87e4cf7994c422bc455d675]
class AssociatedServiceA--><rect codeLine="16" fill="#98FB98" filter="url(#f1v5tn9cpswm01)" height="53.9375" id="AssociatedServiceA" style="stroke: #00FF7F; stroke-width: 1.5;" width="179" x="77.5" y="127"/><ellipse cx="92.5" cy="145.9688" fill="#ADD1B2" rx="11" ry="11" style="stroke: #00FF7F; stroke-width: 1.0;"/><path d="M94.8438,141.6406 C93.9063,141.2031 93.3125,141.0625 92.4375,141.0625 C89.8125,141.0625 87.8125,143.1406 87.8125,145.8594 L87.8125,146.9844 C87.8125,149.5625 89.9219,151.4531 92.8125,151.4531 C94.0313,151.4531 95.1875,151.1563 95.9375,150.6094 C96.5156,150.2031 96.8438,149.75 96.8438,149.3594 C96.8438,148.9063 96.4531,148.5156 95.9844,148.5156 C95.7656,148.5156 95.5625,148.5938 95.375,148.7813 C94.9219,149.2656 94.9219,149.2656 94.7344,149.3594 C94.3125,149.625 93.625,149.75 92.8594,149.75 C90.8125,149.75 89.5156,148.6563 89.5156,146.9531 L89.5156,145.8594 C89.5156,144.0781 90.7656,142.7656 92.5,142.7656 C93.0781,142.7656 93.6875,142.9219 94.1563,143.1719 C94.6406,143.4531 94.8125,143.6719 94.9063,144.0781 C94.9688,144.4844 95,144.6094 95.1406,144.7344 C95.2813,144.875 95.5156,144.9844 95.7344,144.9844 C96,144.9844 96.2656,144.8438 96.4375,144.625 C96.5469,144.4688 96.5781,144.2813 96.5781,143.8594 L96.5781,142.4375 C96.5781,142 96.5625,141.875 96.4688,141.7188 C96.3125,141.4531 96.0313,141.3125 95.7344,141.3125 C95.4375,141.3125 95.2344,141.4063 95.0156,141.7188 L94.8438,141.6406 Z "/><text fill="#000000" font-family="sans-serif" font-size="12" font-style="italic" lengthAdjust="spacingAndGlyphs" textLength="151" x="104.5" y="143.1387">«explicitly implemented»</text><text fill="#000000" font-family="sans-serif" font-size="12" lengthAdjust="spacingAndGlyphs" textLength="121" x="119.5" y="157.1074">AssociatedServiceA</text><line style="stroke: #00FF7F; stroke-width: 1.5;" x1="78.5" x2="255.5" y1="164.9375" y2="164.9375"/><line style="stroke: #00FF7F; stroke-width: 1.5;" x1="78.5" x2="255.5" y1="172.9375" y2="172.9375"/><path d="M32.5,41 L32.5,66.1328 A0,0 0 0 0 32.5,66.1328 L151.542,66.1328 L163.559,126.931 L159.542,66.1328 L275.5,66.1328 A0,0 0 0 0 275.5,66.1328 L275.5,51 L265.5,41 L32.5,41 A0,0 0 0 0 32.5,41 " fill="#FBFB77" filter="url(#f1v5tn9cpswm01)" style="stroke: #A80036; stroke-width: 1.0;"/><path d="M265.5,41 L265.5,51 L275.5,51 L265.5,41 " fill="#FBFB77" style="stroke: #A80036; stroke-width: 1.0;"/><text fill="#000000" font-family="sans-serif" font-size="13" lengthAdjust="spacingAndGlyphs" textLength="222" x="38.5" y="58.0669">decentral orchestrated association</text><ellipse cx="37" cy="154" fill="#98FB98" filter="url(#f1v5tn9cpswm01)" rx="5" ry="5" style="stroke: #00FF7F; stroke-width: 1.5;"/><text fill="#000000" font-family="sans-serif" font-size="12" lengthAdjust="spacingAndGlyphs" textLength="46" x="14" y="170.1387">Service</text><!--MD5=[a96680c9ffdc3faa83ca78a4a850a161]
class ServiceB--><rect codeLine="21" fill="#98FB98" filter="url(#f1v5tn9cpswm01)" height="48" id="ServiceB" style="stroke: #00FF7F; stroke-width: 1.5;" width="86" x="40" y="281"/><ellipse cx="55" cy="297" fill="#ADD1B2" rx="11" ry="11" style="stroke: #00FF7F; stroke-width: 1.0;"/><path d="M57.3438,292.6719 C56.4063,292.2344 55.8125,292.0938 54.9375,292.0938 C52.3125,292.0938 50.3125,294.1719 50.3125,296.8906 L50.3125,298.0156 C50.3125,300.5938 52.4219,302.4844 55.3125,302.4844 C56.5313,302.4844 57.6875,302.1875 58.4375,301.6406 C59.0156,301.2344 59.3438,300.7813 59.3438,300.3906 C59.3438,299.9375 58.9531,299.5469 58.4844,299.5469 C58.2656,299.5469 58.0625,299.625 57.875,299.8125 C57.4219,300.2969 57.4219,300.2969 57.2344,300.3906 C56.8125,300.6563 56.125,300.7813 55.3594,300.7813 C53.3125,300.7813 52.0156,299.6875 52.0156,297.9844 L52.0156,296.8906 C52.0156,295.1094 53.2656,293.7969 55,293.7969 C55.5781,293.7969 56.1875,293.9531 56.6563,294.2031 C57.1406,294.4844 57.3125,294.7031 57.4063,295.1094 C57.4688,295.5156 57.5,295.6406 57.6406,295.7656 C57.7813,295.9063 58.0156,296.0156 58.2344,296.0156 C58.5,296.0156 58.7656,295.875 58.9375,295.6563 C59.0469,295.5 59.0781,295.3125 59.0781,294.8906 L59.0781,293.4688 C59.0781,293.0313 59.0625,292.9063 58.9688,292.75 C58.8125,292.4844 58.5313,292.3438 58.2344,292.3438 C57.9375,292.3438 57.7344,292.4375 57.5156,292.75 L57.3438,292.6719 Z "/><text fill="#000000" font-family="sans-serif" font-size="12" lengthAdjust="spacingAndGlyphs" textLength="54" x="69" y="301.1543">ServiceB</text><line style="stroke: #00FF7F; stroke-width: 1.5;" x1="41" x2="125" y1="313" y2="313"/><line style="stroke: #00FF7F; stroke-width: 1.5;" x1="41" x2="125" y1="321" y2="321"/><!--MD5=[0cb3fd55b2e645aac94d717ccdd1ad41]
class ServiceC--><rect codeLine="26" fill="#98FB98" filter="url(#f1v5tn9cpswm01)" height="48" id="ServiceC" style="stroke: #00FF7F; stroke-width: 1.5;" width="86" x="182" y="281"/><ellipse cx="197" cy="297" fill="#ADD1B2" rx="11" ry="11" style="stroke: #00FF7F; stroke-width: 1.0;"/><path d="M199.3438,292.6719 C198.4063,292.2344 197.8125,292.0938 196.9375,292.0938 C194.3125,292.0938 192.3125,294.1719 192.3125,296.8906 L192.3125,298.0156 C192.3125,300.5938 194.4219,302.4844 197.3125,302.4844 C198.5313,302.4844 199.6875,302.1875 200.4375,301.6406 C201.0156,301.2344 201.3438,300.7813 201.3438,300.3906 C201.3438,299.9375 200.9531,299.5469 200.4844,299.5469 C200.2656,299.5469 200.0625,299.625 199.875,299.8125 C199.4219,300.2969 199.4219,300.2969 199.2344,300.3906 C198.8125,300.6563 198.125,300.7813 197.3594,300.7813 C195.3125,300.7813 194.0156,299.6875 194.0156,297.9844 L194.0156,296.8906 C194.0156,295.1094 195.2656,293.7969 197,293.7969 C197.5781,293.7969 198.1875,293.9531 198.6563,294.2031 C199.1406,294.4844 199.3125,294.7031 199.4063,295.1094 C199.4688,295.5156 199.5,295.6406 199.6406,295.7656 C199.7813,295.9063 200.0156,296.0156 200.2344,296.0156 C200.5,296.0156 200.7656,295.875 200.9375,295.6563 C201.0469,295.5 201.0781,295.3125 201.0781,294.8906 L201.0781,293.4688 C201.0781,293.0313 201.0625,292.9063 200.9688,292.75 C200.8125,292.4844 200.5313,292.3438 200.2344,292.3438 C199.9375,292.3438 199.7344,292.4375 199.5156,292.75 L199.3438,292.6719 Z "/><text fill="#000000" font-family="sans-serif" font-size="12" lengthAdjust="spacingAndGlyphs" textLength="54" x="211" y="301.1543">ServiceC</text><line style="stroke: #00FF7F; stroke-width: 1.5;" x1="183" x2="267" y1="313" y2="313"/><line style="stroke: #00FF7F; stroke-width: 1.5;" x1="183" x2="267" y1="321" y2="321"/><!--MD5=[a8d225bf09ec14ebe019bc810b803a1c]
link AssociatedServiceAlol181804 to AssociatedServiceA--><path d="M42.0781,154 C53.7896,154 65.501,154 77.212,154 " fill="none" id="AssociatedServiceAlol181804-AssociatedServiceA" style="stroke: #2E8B57; stroke-width: 1.0;"/><!--MD5=[aef46d80212b998d108709b11ec71cb7]
link AssociatedServiceA to ServiceB--><path codeLine="22" d="M152.176,181.295 C136.256,209.533 111.208,253.964 96.022,280.901 " fill="none" id="AssociatedServiceA-ServiceB" style="stroke: #2E8B57; stroke-width: 1.0;"/><text fill="#000000" font-family="sans-serif" font-size="13" lengthAdjust="spacingAndGlyphs" textLength="23" x="133" y="226.0669">use</text><polygon fill="#000000" points="140,235.1328,143,241.1328,146,235.1328,140,235.1328" style="stroke: #000000; stroke-width: 1.0;"/><!--MD5=[1ba228f52450a0022cad936e928dccda]
link AssociatedServiceA to ServiceC--><path codeLine="27" d="M177.236,181.295 C188.228,209.533 205.523,253.964 216.009,280.901 " fill="none" id="AssociatedServiceA-ServiceC" style="stroke: #2E8B57; stroke-width: 1.0;"/><text fill="#000000" font-family="sans-serif" font-size="13" lengthAdjust="spacingAndGlyphs" textLength="23" x="197" y="226.0669">use</text><polygon fill="#000000" points="204,235.1328,207,241.1328,210,235.1328,204,235.1328" style="stroke: #000000; stroke-width: 1.0;"/><!--MD5=[879de2b53ec765a52418d3bb1c48a3de]
@startuml
skinparam class {
BackgroundColor PaleGreen
ArrowColor SeaGreen
BorderColor SpringGreen
}


together {

package "PEA A" #DDDDDD {
note top of AssociatedServiceA 
decentral orchestrated association
end note 


class AssociatedServiceA << explicitly implemented >>
Service ()- AssociatedServiceA
}

package "PEA A1" #DDDDDD {
class ServiceB
AssociatedServiceA - - ServiceB : use >
}

package "PEA A2" #DDDDDD {
class ServiceC
AssociatedServiceA - - ServiceC : use >
}








}
@enduml

PlantUML version 1.2020.17beta5(Unknown compile time)
(GPL source distribution)
Java Runtime: Java(TM) SE Runtime Environment
JVM: Java HotSpot(TM) 64-Bit Server VM
Default Encoding: UTF-8
Language: en
Country: US
--></g></svg>