<?xml version="1.0" encoding="UTF-8" standalone="no"?><svg xmlns="http://www.w3.org/2000/svg" xmlns:xlink="http://www.w3.org/1999/xlink" contentScriptType="application/ecmascript" contentStyleType="text/css" height="379px" preserveAspectRatio="none" style="width:488px;height:379px;" version="1.1" viewBox="0 0 488 379" width="488px" zoomAndPan="magnify"><defs/><g><!--MD5=[4907c64bdd742379f6cf1afdc93060e3]
cluster Process Choreography Layer--><polygon fill="#FFFFFF" points="16,6,251,6,258,28.2969,466,28.2969,466,367,16,367,16,6" style="stroke: #000000; stroke-width: 1.5;"/><line style="stroke: #000000; stroke-width: 1.5;" x1="16" x2="258" y1="28.2969" y2="28.2969"/><text fill="#000000" font-family="sans-serif" font-size="14" font-weight="bold" lengthAdjust="spacingAndGlyphs" textLength="229" x="20" y="20.9951">Process Choreography Layer</text><!--MD5=[2da689ad40c60bdeec7efdb990c8f7e8]
cluster PEA A--><polygon fill="#DDDDDD" points="40,244,92,244,99,266.2969,158,266.2969,158,343,40,343,40,244" style="stroke: #000000; stroke-width: 1.5;"/><line style="stroke: #000000; stroke-width: 1.5;" x1="40" x2="99" y1="266.2969" y2="266.2969"/><text fill="#000000" font-family="sans-serif" font-size="14" font-weight="bold" lengthAdjust="spacingAndGlyphs" textLength="46" x="44" y="258.9951">PEA A</text><!--MD5=[18d840dd833a6dad2aefb2bb99eb9ca2]
cluster PEA B--><polygon fill="#DDDDDD" points="182,244,234,244,241,266.2969,300,266.2969,300,343,182,343,182,244" style="stroke: #000000; stroke-width: 1.5;"/><line style="stroke: #000000; stroke-width: 1.5;" x1="182" x2="241" y1="266.2969" y2="266.2969"/><text fill="#000000" font-family="sans-serif" font-size="14" font-weight="bold" lengthAdjust="spacingAndGlyphs" textLength="46" x="186" y="258.9951">PEA B</text><!--MD5=[6a80bdd026ea4da049132d1b6cb27a4d]
cluster PEA C--><polygon fill="#DDDDDD" points="324,244,375,244,382,266.2969,442,266.2969,442,343,324,343,324,244" style="stroke: #000000; stroke-width: 1.5;"/><line style="stroke: #000000; stroke-width: 1.5;" x1="324" x2="382" y1="266.2969" y2="266.2969"/><text fill="#000000" font-family="sans-serif" font-size="14" font-weight="bold" lengthAdjust="spacingAndGlyphs" textLength="45" x="328" y="258.9951">PEA C</text><!--MD5=[5213f8ec108ec6ee9c86235ee98e5f6b]
class AssociatedService--><rect codeLine="20" fill="#98FB98" height="53.9375" id="AssociatedService" style="stroke: #00FF7F; stroke-width: 1.5;" width="180" x="151" y="127"/><ellipse cx="166" cy="145.9688" fill="#ADD1B2" rx="11" ry="11" style="stroke: #00FF7F; stroke-width: 1.0;"/><path d="M168.3438,141.6406 C167.4063,141.2031 166.8125,141.0625 165.9375,141.0625 C163.3125,141.0625 161.3125,143.1406 161.3125,145.8594 L161.3125,146.9844 C161.3125,149.5625 163.4219,151.4531 166.3125,151.4531 C167.5313,151.4531 168.6875,151.1563 169.4375,150.6094 C170.0156,150.2031 170.3438,149.75 170.3438,149.3594 C170.3438,148.9063 169.9531,148.5156 169.4844,148.5156 C169.2656,148.5156 169.0625,148.5938 168.875,148.7813 C168.4219,149.2656 168.4219,149.2656 168.2344,149.3594 C167.8125,149.625 167.125,149.75 166.3594,149.75 C164.3125,149.75 163.0156,148.6563 163.0156,146.9531 L163.0156,145.8594 C163.0156,144.0781 164.2656,142.7656 166,142.7656 C166.5781,142.7656 167.1875,142.9219 167.6563,143.1719 C168.1406,143.4531 168.3125,143.6719 168.4063,144.0781 C168.4688,144.4844 168.5,144.6094 168.6406,144.7344 C168.7813,144.875 169.0156,144.9844 169.2344,144.9844 C169.5,144.9844 169.7656,144.8438 169.9375,144.625 C170.0469,144.4688 170.0781,144.2813 170.0781,143.8594 L170.0781,142.4375 C170.0781,142 170.0625,141.875 169.9688,141.7188 C169.8125,141.4531 169.5313,141.3125 169.2344,141.3125 C168.9375,141.3125 168.7344,141.4063 168.5156,141.7188 L168.3438,141.6406 Z "/><text fill="#000000" font-family="sans-serif" font-size="12" font-style="italic" lengthAdjust="spacingAndGlyphs" textLength="152" x="178" y="143.1387">«implicitly implemented»</text><text fill="#000000" font-family="sans-serif" font-size="12" lengthAdjust="spacingAndGlyphs" textLength="113" x="197.5" y="157.1074">AssociatedService</text><line style="stroke: #00FF7F; stroke-width: 1.5;" x1="152" x2="330" y1="164.9375" y2="164.9375"/><line style="stroke: #00FF7F; stroke-width: 1.5;" x1="152" x2="330" y1="172.9375" y2="172.9375"/><path d="M108,41 L108,66.1328 A0,0 0 0 0 108,66.1328 L237,66.1328 L241,126.931 L245,66.1328 L374,66.1328 A0,0 0 0 0 374,66.1328 L374,51 L364,41 L108,41 A0,0 0 0 0 108,41 " fill="#FBFB77" style="stroke: #A80036; stroke-width: 1.0;"/><path d="M364,41 L364,51 L374,51 L364,41 " fill="#FBFB77" style="stroke: #A80036; stroke-width: 1.0;"/><text fill="#000000" font-family="sans-serif" font-size="13" lengthAdjust="spacingAndGlyphs" textLength="245" x="114" y="58.0669">distributed choreographed association</text><ellipse cx="111" cy="154" fill="#98FB98" rx="5" ry="5" style="stroke: #00FF7F; stroke-width: 1.5;"/><text fill="#000000" font-family="sans-serif" font-size="12" lengthAdjust="spacingAndGlyphs" textLength="46" x="88" y="170.1387">Service</text><!--MD5=[002865b8e1cf1986e08dd6357225f5e0]
class ServiceA--><rect codeLine="25" fill="#98FB98" height="48" id="ServiceA" style="stroke: #00FF7F; stroke-width: 1.5;" width="86" x="56" y="279"/><ellipse cx="71" cy="295" fill="#ADD1B2" rx="11" ry="11" style="stroke: #00FF7F; stroke-width: 1.0;"/><path d="M73.3438,290.6719 C72.4063,290.2344 71.8125,290.0938 70.9375,290.0938 C68.3125,290.0938 66.3125,292.1719 66.3125,294.8906 L66.3125,296.0156 C66.3125,298.5938 68.4219,300.4844 71.3125,300.4844 C72.5313,300.4844 73.6875,300.1875 74.4375,299.6406 C75.0156,299.2344 75.3438,298.7813 75.3438,298.3906 C75.3438,297.9375 74.9531,297.5469 74.4844,297.5469 C74.2656,297.5469 74.0625,297.625 73.875,297.8125 C73.4219,298.2969 73.4219,298.2969 73.2344,298.3906 C72.8125,298.6563 72.125,298.7813 71.3594,298.7813 C69.3125,298.7813 68.0156,297.6875 68.0156,295.9844 L68.0156,294.8906 C68.0156,293.1094 69.2656,291.7969 71,291.7969 C71.5781,291.7969 72.1875,291.9531 72.6563,292.2031 C73.1406,292.4844 73.3125,292.7031 73.4063,293.1094 C73.4688,293.5156 73.5,293.6406 73.6406,293.7656 C73.7813,293.9063 74.0156,294.0156 74.2344,294.0156 C74.5,294.0156 74.7656,293.875 74.9375,293.6563 C75.0469,293.5 75.0781,293.3125 75.0781,292.8906 L75.0781,291.4688 C75.0781,291.0313 75.0625,290.9063 74.9688,290.75 C74.8125,290.4844 74.5313,290.3438 74.2344,290.3438 C73.9375,290.3438 73.7344,290.4375 73.5156,290.75 L73.3438,290.6719 Z "/><text fill="#000000" font-family="sans-serif" font-size="12" lengthAdjust="spacingAndGlyphs" textLength="54" x="85" y="299.1543">ServiceA</text><line style="stroke: #00FF7F; stroke-width: 1.5;" x1="57" x2="141" y1="311" y2="311"/><line style="stroke: #00FF7F; stroke-width: 1.5;" x1="57" x2="141" y1="319" y2="319"/><!--MD5=[a96680c9ffdc3faa83ca78a4a850a161]
class ServiceB--><rect codeLine="31" fill="#98FB98" height="48" id="ServiceB" style="stroke: #00FF7F; stroke-width: 1.5;" width="86" x="198" y="279"/><ellipse cx="213" cy="295" fill="#ADD1B2" rx="11" ry="11" style="stroke: #00FF7F; stroke-width: 1.0;"/><path d="M215.3438,290.6719 C214.4063,290.2344 213.8125,290.0938 212.9375,290.0938 C210.3125,290.0938 208.3125,292.1719 208.3125,294.8906 L208.3125,296.0156 C208.3125,298.5938 210.4219,300.4844 213.3125,300.4844 C214.5313,300.4844 215.6875,300.1875 216.4375,299.6406 C217.0156,299.2344 217.3438,298.7813 217.3438,298.3906 C217.3438,297.9375 216.9531,297.5469 216.4844,297.5469 C216.2656,297.5469 216.0625,297.625 215.875,297.8125 C215.4219,298.2969 215.4219,298.2969 215.2344,298.3906 C214.8125,298.6563 214.125,298.7813 213.3594,298.7813 C211.3125,298.7813 210.0156,297.6875 210.0156,295.9844 L210.0156,294.8906 C210.0156,293.1094 211.2656,291.7969 213,291.7969 C213.5781,291.7969 214.1875,291.9531 214.6563,292.2031 C215.1406,292.4844 215.3125,292.7031 215.4063,293.1094 C215.4688,293.5156 215.5,293.6406 215.6406,293.7656 C215.7813,293.9063 216.0156,294.0156 216.2344,294.0156 C216.5,294.0156 216.7656,293.875 216.9375,293.6563 C217.0469,293.5 217.0781,293.3125 217.0781,292.8906 L217.0781,291.4688 C217.0781,291.0313 217.0625,290.9063 216.9688,290.75 C216.8125,290.4844 216.5313,290.3438 216.2344,290.3438 C215.9375,290.3438 215.7344,290.4375 215.5156,290.75 L215.3438,290.6719 Z "/><text fill="#000000" font-family="sans-serif" font-size="12" lengthAdjust="spacingAndGlyphs" textLength="54" x="227" y="299.1543">ServiceB</text><line style="stroke: #00FF7F; stroke-width: 1.5;" x1="199" x2="283" y1="311" y2="311"/><line style="stroke: #00FF7F; stroke-width: 1.5;" x1="199" x2="283" y1="319" y2="319"/><!--MD5=[0cb3fd55b2e645aac94d717ccdd1ad41]
class ServiceC--><rect codeLine="37" fill="#98FB98" height="48" id="ServiceC" style="stroke: #00FF7F; stroke-width: 1.5;" width="86" x="340" y="279"/><ellipse cx="355" cy="295" fill="#ADD1B2" rx="11" ry="11" style="stroke: #00FF7F; stroke-width: 1.0;"/><path d="M357.3438,290.6719 C356.4063,290.2344 355.8125,290.0938 354.9375,290.0938 C352.3125,290.0938 350.3125,292.1719 350.3125,294.8906 L350.3125,296.0156 C350.3125,298.5938 352.4219,300.4844 355.3125,300.4844 C356.5313,300.4844 357.6875,300.1875 358.4375,299.6406 C359.0156,299.2344 359.3438,298.7813 359.3438,298.3906 C359.3438,297.9375 358.9531,297.5469 358.4844,297.5469 C358.2656,297.5469 358.0625,297.625 357.875,297.8125 C357.4219,298.2969 357.4219,298.2969 357.2344,298.3906 C356.8125,298.6563 356.125,298.7813 355.3594,298.7813 C353.3125,298.7813 352.0156,297.6875 352.0156,295.9844 L352.0156,294.8906 C352.0156,293.1094 353.2656,291.7969 355,291.7969 C355.5781,291.7969 356.1875,291.9531 356.6563,292.2031 C357.1406,292.4844 357.3125,292.7031 357.4063,293.1094 C357.4688,293.5156 357.5,293.6406 357.6406,293.7656 C357.7813,293.9063 358.0156,294.0156 358.2344,294.0156 C358.5,294.0156 358.7656,293.875 358.9375,293.6563 C359.0469,293.5 359.0781,293.3125 359.0781,292.8906 L359.0781,291.4688 C359.0781,291.0313 359.0625,290.9063 358.9688,290.75 C358.8125,290.4844 358.5313,290.3438 358.2344,290.3438 C357.9375,290.3438 357.7344,290.4375 357.5156,290.75 L357.3438,290.6719 Z "/><text fill="#000000" font-family="sans-serif" font-size="12" lengthAdjust="spacingAndGlyphs" textLength="54" x="369" y="299.1543">ServiceC</text><line style="stroke: #00FF7F; stroke-width: 1.5;" x1="341" x2="425" y1="311" y2="311"/><line style="stroke: #00FF7F; stroke-width: 1.5;" x1="341" x2="425" y1="319" y2="319"/><!--MD5=[31169ff2b7212ceff195e8e4f3f13130]
link AssociatedServicelol145616 to AssociatedService--><path d="M116.078,154 C127.627,154 139.176,154 150.724,154 " fill="none" id="AssociatedServicelol145616-AssociatedService" style="stroke: #2E8B57; stroke-width: 1.0;"/><!--MD5=[9014d32e9dbc790375b6e5d4a3297821]
link AssociatedService to ServiceA--><path codeLine="26" d="M215.613,181.281 C188.809,209.028 146.964,252.347 121.363,278.849 " fill="none" id="AssociatedService-ServiceA" style="stroke: #2E8B57; stroke-width: 1.0;"/><text fill="#000000" font-family="sans-serif" font-size="13" lengthAdjust="spacingAndGlyphs" textLength="23" x="188" y="224.0669">use</text><polygon fill="#000000" points="195,233.1328,198,239.1328,201,233.1328,195,233.1328" style="stroke: #000000; stroke-width: 1.0;"/><!--MD5=[03d43a2062f914ede7059ca1c428d010]
link AssociatedService to ServiceB--><path codeLine="32" d="M241,181.281 C241,209.028 241,252.347 241,278.849 " fill="none" id="AssociatedService-ServiceB" style="stroke: #2E8B57; stroke-width: 1.0;"/><text fill="#000000" font-family="sans-serif" font-size="13" lengthAdjust="spacingAndGlyphs" textLength="23" x="242" y="224.0669">use</text><polygon fill="#000000" points="249,233.1328,252,239.1328,255,233.1328,249,233.1328" style="stroke: #000000; stroke-width: 1.0;"/><!--MD5=[f192bbe47bf5c3a8b6d4455d64375856]
link AssociatedService to ServiceC--><path codeLine="38" d="M266.387,181.281 C293.191,209.028 335.036,252.347 360.637,278.849 " fill="none" id="AssociatedService-ServiceC" style="stroke: #2E8B57; stroke-width: 1.0;"/><text fill="#000000" font-family="sans-serif" font-size="13" lengthAdjust="spacingAndGlyphs" textLength="23" x="308" y="224.0669">use</text><polygon fill="#000000" points="315,233.1328,318,239.1328,321,233.1328,315,233.1328" style="stroke: #000000; stroke-width: 1.0;"/><!--MD5=[a244f3ee30c554ed989ba7030e52e560]
@startuml
skinparam class {
BackgroundColor PaleGreen
ArrowColor SeaGreen
BorderColor SpringGreen
}

skinparam shadowing false
skinparam package<<Layout>> {
  borderColor Transparent
  backgroundColor Transparent
  fontColor Transparent
  stereotypeFontColor Transparent
}

package "Process Choreography Layer" {
note top of AssociatedService 
distributed choreographed association
end note 

class AssociatedService << implicitly implemented >>
Service ()- AssociatedService


package "PEA A" #DDDDDD {
class ServiceA
AssociatedService - - ServiceA : use >

}

package "PEA B" #DDDDDD {
class ServiceB
AssociatedService - - ServiceB : use >

}

package "PEA C" #DDDDDD {
class ServiceC
AssociatedService - - ServiceC : use >

}









}
@enduml

PlantUML version 1.2020.17beta5(Unknown compile time)
(GPL source distribution)
Java Runtime: Java(TM) SE Runtime Environment
JVM: Java HotSpot(TM) 64-Bit Server VM
Default Encoding: UTF-8
Language: en
Country: US
--></g></svg>