<?xml version="1.0" encoding="UTF-8" standalone="no"?><svg xmlns="http://www.w3.org/2000/svg" xmlns:xlink="http://www.w3.org/1999/xlink" contentScriptType="application/ecmascript" contentStyleType="text/css" height="334px" preserveAspectRatio="none" style="width:428px;height:334px;" version="1.1" viewBox="0 0 428 334" width="428px" zoomAndPan="magnify"><defs><filter height="300%" id="f186yqlle0wv14" width="300%" x="-1" y="-1"><feGaussianBlur result="blurOut" stdDeviation="2.0"/><feColorMatrix in="blurOut" result="blurOut2" type="matrix" values="0 0 0 0 0 0 0 0 0 0 0 0 0 0 0 0 0 0 .4 0"/><feOffset dx="4.0" dy="4.0" in="blurOut2" result="blurOut3"/><feBlend in="SourceGraphic" in2="blurOut3" mode="normal"/></filter></defs><g><!--MD5=[e0c816418fcd1de26ce1b8635bfd5c5a]
cluster Orchestrated Association--><polygon fill="#DDDDDD" filter="url(#f186yqlle0wv14)" points="16,6,231,6,238,28.2969,406,28.2969,406,322,16,322,16,6" style="stroke: #000000; stroke-width: 1.5;"/><line style="stroke: #000000; stroke-width: 1.5;" x1="16" x2="238" y1="28.2969" y2="28.2969"/><text fill="#000000" font-family="sans-serif" font-size="14" font-weight="bold" lengthAdjust="spacingAndGlyphs" textLength="209" x="20" y="20.9951">Orchestrated Association</text><!--MD5=[5213f8ec108ec6ee9c86235ee98e5f6b]
class AssociatedService--><rect codeLine="12" fill="#98FB98" filter="url(#f186yqlle0wv14)" height="53.9375" id="AssociatedService" style="stroke: #00FF7F; stroke-width: 1.5;" width="179" x="121.5" y="127"/><ellipse cx="136.5" cy="145.9688" fill="#ADD1B2" rx="11" ry="11" style="stroke: #00FF7F; stroke-width: 1.0;"/><path d="M138.8438,141.6406 C137.9063,141.2031 137.3125,141.0625 136.4375,141.0625 C133.8125,141.0625 131.8125,143.1406 131.8125,145.8594 L131.8125,146.9844 C131.8125,149.5625 133.9219,151.4531 136.8125,151.4531 C138.0313,151.4531 139.1875,151.1563 139.9375,150.6094 C140.5156,150.2031 140.8438,149.75 140.8438,149.3594 C140.8438,148.9063 140.4531,148.5156 139.9844,148.5156 C139.7656,148.5156 139.5625,148.5938 139.375,148.7813 C138.9219,149.2656 138.9219,149.2656 138.7344,149.3594 C138.3125,149.625 137.625,149.75 136.8594,149.75 C134.8125,149.75 133.5156,148.6563 133.5156,146.9531 L133.5156,145.8594 C133.5156,144.0781 134.7656,142.7656 136.5,142.7656 C137.0781,142.7656 137.6875,142.9219 138.1563,143.1719 C138.6406,143.4531 138.8125,143.6719 138.9063,144.0781 C138.9688,144.4844 139,144.6094 139.1406,144.7344 C139.2813,144.875 139.5156,144.9844 139.7344,144.9844 C140,144.9844 140.2656,144.8438 140.4375,144.625 C140.5469,144.4688 140.5781,144.2813 140.5781,143.8594 L140.5781,142.4375 C140.5781,142 140.5625,141.875 140.4688,141.7188 C140.3125,141.4531 140.0313,141.3125 139.7344,141.3125 C139.4375,141.3125 139.2344,141.4063 139.0156,141.7188 L138.8438,141.6406 Z "/><text fill="#000000" font-family="sans-serif" font-size="12" font-style="italic" lengthAdjust="spacingAndGlyphs" textLength="151" x="148.5" y="143.1387">«explicitly implemented»</text><text fill="#000000" font-family="sans-serif" font-size="12" lengthAdjust="spacingAndGlyphs" textLength="113" x="167.5" y="157.1074">AssociatedService</text><line style="stroke: #00FF7F; stroke-width: 1.5;" x1="122.5" x2="299.5" y1="164.9375" y2="164.9375"/><line style="stroke: #00FF7F; stroke-width: 1.5;" x1="122.5" x2="299.5" y1="172.9375" y2="172.9375"/><path d="M32.5,41 L32.5,66.1328 A0,0 0 0 0 32.5,66.1328 L207,66.1328 L211,126.931 L215,66.1328 L389.5,66.1328 A0,0 0 0 0 389.5,66.1328 L389.5,51 L379.5,41 L32.5,41 A0,0 0 0 0 32.5,41 " fill="#FBFB77" filter="url(#f186yqlle0wv14)" style="stroke: #A80036; stroke-width: 1.0;"/><path d="M379.5,41 L379.5,51 L389.5,51 L379.5,41 " fill="#FBFB77" style="stroke: #A80036; stroke-width: 1.0;"/><text fill="#000000" font-family="sans-serif" font-size="13" lengthAdjust="spacingAndGlyphs" textLength="336" x="38.5" y="58.0669">association following the orchestration methodology</text><!--MD5=[712b563cc473e30325783b864460eb85]
class AutomationService--><rect codeLine="13" fill="#98FB98" filter="url(#f186yqlle0wv14)" height="48" id="AutomationService" style="stroke: #00FF7F; stroke-width: 1.5;" width="145" x="138.5" y="258"/><ellipse cx="153.5" cy="274" fill="#ADD1B2" rx="11" ry="11" style="stroke: #00FF7F; stroke-width: 1.0;"/><path d="M155.8438,269.6719 C154.9063,269.2344 154.3125,269.0938 153.4375,269.0938 C150.8125,269.0938 148.8125,271.1719 148.8125,273.8906 L148.8125,275.0156 C148.8125,277.5938 150.9219,279.4844 153.8125,279.4844 C155.0313,279.4844 156.1875,279.1875 156.9375,278.6406 C157.5156,278.2344 157.8438,277.7813 157.8438,277.3906 C157.8438,276.9375 157.4531,276.5469 156.9844,276.5469 C156.7656,276.5469 156.5625,276.625 156.375,276.8125 C155.9219,277.2969 155.9219,277.2969 155.7344,277.3906 C155.3125,277.6563 154.625,277.7813 153.8594,277.7813 C151.8125,277.7813 150.5156,276.6875 150.5156,274.9844 L150.5156,273.8906 C150.5156,272.1094 151.7656,270.7969 153.5,270.7969 C154.0781,270.7969 154.6875,270.9531 155.1563,271.2031 C155.6406,271.4844 155.8125,271.7031 155.9063,272.1094 C155.9688,272.5156 156,272.6406 156.1406,272.7656 C156.2813,272.9063 156.5156,273.0156 156.7344,273.0156 C157,273.0156 157.2656,272.875 157.4375,272.6563 C157.5469,272.5 157.5781,272.3125 157.5781,271.8906 L157.5781,270.4688 C157.5781,270.0313 157.5625,269.9063 157.4688,269.75 C157.3125,269.4844 157.0313,269.3438 156.7344,269.3438 C156.4375,269.3438 156.2344,269.4375 156.0156,269.75 L155.8438,269.6719 Z "/><text fill="#000000" font-family="sans-serif" font-size="12" lengthAdjust="spacingAndGlyphs" textLength="113" x="167.5" y="278.1543">AutomationService</text><line style="stroke: #00FF7F; stroke-width: 1.5;" x1="139.5" x2="282.5" y1="290" y2="290"/><line style="stroke: #00FF7F; stroke-width: 1.5;" x1="139.5" x2="282.5" y1="298" y2="298"/><ellipse cx="81" cy="154" fill="#98FB98" filter="url(#f186yqlle0wv14)" rx="5" ry="5" style="stroke: #00FF7F; stroke-width: 1.5;"/><text fill="#000000" font-family="sans-serif" font-size="12" lengthAdjust="spacingAndGlyphs" textLength="46" x="58" y="170.1387">Service</text><!--MD5=[1147c688f13cb75dd2c74e4db912edb1]
link AssociatedService to AutomationService--><path codeLine="15" d="M211,181.107 C211,203.741 211,236.184 211,257.8919 " fill="none" id="AssociatedService-AutomationService" style="stroke: #2E8B57; stroke-width: 1.0;"/><text fill="#000000" font-family="sans-serif" font-size="13" lengthAdjust="spacingAndGlyphs" textLength="23" x="212" y="224.0669">use</text><polygon fill="#000000" points="219,233.1328,222,239.1328,225,233.1328,219,233.1328" style="stroke: #000000; stroke-width: 1.0;"/><!--MD5=[bc046042e64b29a8c355363c556c2c54]
link AssociatedServicelol319361 to AssociatedService--><path d="M86.0781,154 C97.7896,154 109.501,154 121.212,154 " fill="none" id="AssociatedServicelol319361-AssociatedService" style="stroke: #2E8B57; stroke-width: 1.0;"/><!--MD5=[cf960a38b74b70a51b3e7a0adba7d908]
@startuml
skinparam class {
BackgroundColor PaleGreen
ArrowColor SeaGreen
BorderColor SpringGreen
}
package "Orchestrated Association" #DDDDDD {

note top of AssociatedService 
association following the orchestration methodology
end note 

class AssociatedService << explicitly implemented >>
class AutomationService

AssociatedService - - AutomationService : use >
Service ()- AssociatedService

}
@enduml

PlantUML version 1.2020.17beta5(Unknown compile time)
(GPL source distribution)
Java Runtime: Java(TM) SE Runtime Environment
JVM: Java HotSpot(TM) 64-Bit Server VM
Default Encoding: UTF-8
Language: en
Country: US
--></g></svg>